<svg width="295" height="111" viewBox="0 0 295 111" fill="none" xmlns="http://www.w3.org/2000/svg">
<path d="M254.345 52.9794L282.043 70.1249C288.967 74.2954 290.352 80.7829 288.506 85.8802C286.827 90.5141 282.504 95.0897 275.58 94.2213C270.04 93.5262 256.25 91.4409 250.19 81.7097C242.978 70.1249 255.268 59.9303 264.501 65.0276C271.425 69.6615 271.425 78.0026 267.732 82.6365C262.193 89.5874 242.889 99.2797 229.879 91.4409C221.604 86.4548 216.491 66.8811 216.491 70.1249C216.491 71.5151 225.724 90.9775 213.722 93.7579C199.873 96.0748 193.872 65.0276 193.872 70.5883C193.872 71.5151 198.95 90.5141 189.717 93.7579C176.33 97.465 170.79 65.0276 170.79 70.5883C170.79 71.5151 174.945 90.9775 166.636 94.2213C152.923 99.5744 146.785 66.8811 146.785 70.1249C146.785 70.5883 154.172 91.4409 141.708 94.2213C124.166 98.1342 114.01 44.6383 114.01 47.4187C114.01 50.199 126.474 79.3927 114.01 89.5874C108.655 93.2018 108.193 94.1286 67.5699 94.1286C29.2547 94.1286 25.5617 94.1286 25.1001 94.1286H5.25M16.3291 68.1786V105.25M31.1012 68.1786V105.25M42.1803 79.3H5.25M176.053 47.7894H200.981M130.813 47.7894H155.741M182.516 34.8144H194.518M5.25 18.225H155.741M72.4632 5.25H155.741" stroke="#00D4FF" stroke-width="10.5" stroke-linecap="round"/>
</svg>
